<svg width="47" height="31" viewBox="0 0 47 31" fill="none" xmlns="http://www.w3.org/2000/svg">
<path fill-rule="evenodd" clip-rule="evenodd" d="M46.5824 2.60861C44.893 4.5216 43.6011 6.75755 42.7813 9.2171C42.7394 9.17525 42.6897 9.14123 42.6322 9.10184C42.5873 9.07109 42.5376 9.03708 42.4831 8.9935C42.2347 8.81959 41.9863 8.64569 41.713 8.49662C41.5142 8.3724 41.2906 8.27303 41.067 8.17365C41.0298 8.16123 40.9925 8.1426 40.9552 8.12397C40.918 8.10533 40.8807 8.0867 40.8434 8.07428C40.5205 7.95006 40.1726 7.82584 39.8 7.75131C39.7503 7.73888 39.7068 7.73267 39.6633 7.72646C39.6199 7.72025 39.5764 7.71404 39.5267 7.70162C39.477 7.6892 39.4273 7.68298 39.3776 7.67677C39.328 7.67056 39.2783 7.66435 39.2286 7.65193C39.1789 7.62709 39.1292 7.62709 39.0795 7.62709C39.0422 7.62709 38.9988 7.62088 38.9553 7.61466C38.9118 7.60845 38.8683 7.60224 38.8311 7.60224C38.682 7.5774 38.5081 7.55255 38.359 7.55255H37.9864H37.6137C37.5304 7.56446 37.4528 7.57066 37.3781 7.57662C37.297 7.5831 37.2193 7.5893 37.1417 7.60224C37.1044 7.60224 37.0609 7.60845 37.0175 7.61466C36.974 7.62088 36.9305 7.62709 36.8932 7.62709C36.8522 7.62709 36.8187 7.63462 36.7886 7.64138C36.764 7.64691 36.7417 7.65193 36.7193 7.65193C36.62 7.65193 36.5206 7.67677 36.4212 7.70162C36.3467 7.70162 36.2721 7.72646 36.1976 7.75131C35.825 7.85068 35.4771 7.95006 35.1293 8.09912C35.0921 8.11154 35.0548 8.13018 35.0175 8.14881C34.9803 8.16744 34.943 8.18607 34.9057 8.1985C34.6821 8.29787 34.4585 8.39725 34.2598 8.52147C33.9865 8.67053 33.7381 8.84444 33.4896 9.01835C33.4524 9.05561 33.4089 9.08666 33.3654 9.11772C33.3219 9.14877 33.2785 9.17983 33.2412 9.2171C33.2199 9.23415 33.1993 9.25046 33.1793 9.2663C33.0829 9.34278 33.0005 9.40805 32.9182 9.49038C32.6946 9.68913 32.4959 9.88788 32.322 10.0866C32.2226 10.186 32.1232 10.3102 32.0487 10.4096L31.8251 10.7077L31.7505 10.8071C31.7257 10.8444 31.7071 10.8754 31.6884 10.9065C31.6698 10.9375 31.6512 10.9686 31.6263 11.0059C31.5766 11.0555 31.5518 11.1052 31.527 11.1549C31.5021 11.1922 31.4835 11.2295 31.4648 11.2667C31.4462 11.304 31.4276 11.3413 31.4027 11.3785C31.1791 11.7512 31.0052 12.1487 30.8562 12.5462C30.8313 12.6456 30.8065 12.7201 30.7816 12.7946C30.7692 12.8195 30.763 12.8505 30.7568 12.8816C30.7506 12.9126 30.7444 12.9437 30.7319 12.9685C30.7319 12.981 30.7257 12.9996 30.7195 13.0182C30.7133 13.0369 30.7071 13.0555 30.7071 13.0679L30.6326 13.366C30.6326 13.3909 30.6264 13.4095 30.6201 13.4281C30.6139 13.4468 30.6077 13.4654 30.6077 13.4903C30.5953 13.5275 30.5891 13.571 30.5829 13.6145C30.5767 13.6579 30.5705 13.7014 30.558 13.7387C30.558 13.7635 30.5518 13.7946 30.5456 13.8256C30.5394 13.8567 30.5332 13.8878 30.5332 13.9126C30.5332 13.9499 30.527 13.9809 30.5208 14.012C30.5146 14.043 30.5084 14.0741 30.5084 14.1114C30.5084 14.1486 30.5021 14.1921 30.4959 14.2356C30.4897 14.279 30.4835 14.3225 30.4835 14.3598C30.4835 14.4219 30.4773 14.484 30.4711 14.5461C30.4649 14.6082 30.4587 14.6703 30.4587 14.7324C30.4338 14.8815 30.4338 15.0057 30.4338 15.1548C30.4338 19.0056 28.9929 22.5086 26.6327 25.1669C25.788 26.1358 24.8191 26.9557 23.7756 27.6761C21.3161 29.3158 18.3845 30.2847 15.2045 30.2847C6.80724 30.2847 0 23.5272 0 15.1548C0 6.78239 6.80724 0 15.2045 0C18.3845 0 21.3409 0.968913 23.7508 2.60861C22.0863 4.5216 20.7695 6.75755 19.9497 9.2171C18.6578 8.17365 16.9933 7.55255 15.2045 7.55255C11.0059 7.55255 7.60224 10.9562 7.60224 15.13C7.60224 19.3286 11.0059 22.7073 15.13 22.757C16.9187 22.757 18.5833 22.1359 19.8751 21.0925C21.6142 19.7012 22.7322 17.5647 22.7322 15.1796C22.7322 14.2107 22.8316 13.2667 23.0055 12.3474C23.0303 12.2481 23.0552 12.1239 23.08 11.9998L23.08 11.9996L23.1545 11.7015C23.1794 11.6145 23.198 11.5338 23.2167 11.4531C23.2353 11.3723 23.2539 11.2916 23.2788 11.2046C23.3036 11.1177 23.3285 11.0369 23.3533 10.9562C23.3781 10.8754 23.403 10.7947 23.4278 10.7077C23.5024 10.4841 23.5769 10.2605 23.6514 10.0618L23.6763 9.98726C23.726 9.88789 23.7508 9.81337 23.7756 9.73885L23.7756 9.73882C23.8195 9.60737 23.8719 9.48451 23.9228 9.36518C23.9584 9.28154 23.9934 9.19963 24.0241 9.11772L24.0489 9.06803C24.0738 9.01835 24.0924 8.97488 24.111 8.9314C24.1297 8.88792 24.1483 8.84444 24.1731 8.79475L24.3222 8.49662L24.4713 8.1985C24.6203 7.92521 24.7694 7.65193 24.9185 7.40349L24.9433 7.37865L24.993 7.30412C25.0126 7.27472 25.0283 7.24532 25.0433 7.21744C25.0662 7.17465 25.0871 7.13545 25.1172 7.10536C25.1296 7.09294 25.1421 7.07431 25.1545 7.05568C25.1669 7.03704 25.1793 7.01841 25.1918 7.00599C25.316 6.80724 25.4402 6.60849 25.5644 6.43458C25.5768 6.42216 25.5893 6.40352 25.6017 6.38489C25.6141 6.36625 25.6265 6.34762 25.6389 6.3352C25.6638 6.28551 25.6886 6.23583 25.7383 6.18614C25.8505 6.02588 25.973 5.87596 26.0925 5.72971C26.1583 5.64924 26.2232 5.56987 26.2849 5.49051C26.3346 5.4284 26.3905 5.36628 26.4464 5.30417C26.5023 5.24206 26.5582 5.17996 26.6079 5.11785L26.6079 5.11783C26.7321 4.99362 26.8315 4.89425 26.9308 4.77003C27.0302 4.64581 27.1296 4.54644 27.2538 4.42222C27.2778 4.39823 27.3018 4.37167 27.3266 4.3442C27.3789 4.2863 27.4348 4.22433 27.5022 4.17378C27.5519 4.13651 27.5954 4.09304 27.6389 4.04956C27.6824 4.00608 27.7258 3.96261 27.7755 3.92534C27.8749 3.82596 27.9494 3.75143 28.0488 3.6769C28.2476 3.47815 28.4711 3.30424 28.6947 3.13033C28.819 3.0558 28.9183 2.98127 29.0177 2.90674L29.0922 2.85705C29.1544 2.81979 29.2165 2.77631 29.2786 2.73283C29.3407 2.68936 29.4028 2.64588 29.4649 2.60861C29.5643 2.53408 29.6885 2.45955 29.8127 2.38502C29.8624 2.33533 29.9121 2.31049 29.9618 2.28564C30.0363 2.24838 30.1046 2.2049 30.173 2.16142C30.2413 2.11794 30.3096 2.07447 30.3841 2.0372C30.4711 1.98751 30.558 1.94404 30.645 1.90056C30.7319 1.85708 30.8189 1.81361 30.9059 1.76392C31.0184 1.68889 31.1451 1.62802 31.2646 1.57063C31.3034 1.552 31.3414 1.53374 31.3779 1.51548C31.44 1.49064 31.5021 1.45958 31.5642 1.42853C31.6263 1.39747 31.6884 1.36642 31.7505 1.34157C31.7878 1.32915 31.8189 1.31673 31.8499 1.30431C31.881 1.29188 31.912 1.27946 31.9493 1.26704C32.0238 1.2422 32.0984 1.21114 32.1729 1.18009C32.2474 1.14903 32.322 1.11798 32.3965 1.09313C32.471 1.06829 32.5518 1.03723 32.6325 1.00618C32.7133 0.975124 32.794 0.944069 32.8685 0.919225C32.8934 0.906803 32.9182 0.900592 32.9431 0.894381C32.9679 0.88817 32.9927 0.881959 33.0176 0.869538C33.0797 0.844694 33.1418 0.826061 33.2039 0.807428C33.266 0.788795 33.3281 0.770162 33.3903 0.745318C33.5393 0.69563 33.7132 0.645942 33.8871 0.596254C33.9368 0.583832 33.9803 0.57141 34.0238 0.558988C34.0672 0.546566 34.1107 0.534145 34.1604 0.521723C34.2131 0.511178 34.2703 0.496159 34.3301 0.480463C34.4112 0.459177 34.497 0.436646 34.5828 0.422347C34.7318 0.372659 34.8809 0.347815 35.0299 0.322971C35.1045 0.298127 35.179 0.273283 35.2535 0.273283L35.7007 0.198751C35.8001 0.186329 35.8933 0.173906 35.9865 0.161483C36.0796 0.149062 36.1728 0.136641 36.2721 0.12422C36.3591 0.111798 36.4461 0.105587 36.533 0.0993758C36.62 0.0931648 36.7069 0.0869538 36.7939 0.0745318C36.8808 0.0745318 36.9616 0.0683208 37.0423 0.0621098C37.1231 0.0558989 37.2038 0.0496879 37.2907 0.0496879H37.4895H38.0112H38.5329H38.7565C38.8435 0.0496879 38.9304 0.0558989 39.0174 0.0621098C39.1044 0.0683208 39.1913 0.0745318 39.2783 0.0745318C39.4326 0.0745318 39.5674 0.0940993 39.7173 0.115869C39.7363 0.118629 39.7556 0.121424 39.7751 0.12422C39.8621 0.136642 39.9553 0.149064 40.0484 0.161486C40.1416 0.173907 40.2348 0.186329 40.3217 0.198751L40.7689 0.273283C40.8062 0.285705 40.8434 0.291916 40.8807 0.298127C40.918 0.304338 40.9552 0.310549 40.9925 0.322971C41.2658 0.372659 41.5639 0.447191 41.8372 0.521723C41.8869 0.534145 41.9304 0.546568 41.9738 0.558991C42.0173 0.571412 42.0608 0.583833 42.1105 0.596254C42.1974 0.621098 42.2782 0.645942 42.3589 0.670786C42.4397 0.69563 42.5204 0.720474 42.6073 0.745318C42.6695 0.770161 42.7316 0.788794 42.7937 0.807426C42.8558 0.82606 42.9179 0.844693 42.98 0.869538C43.0297 0.869538 43.0794 0.894381 43.1291 0.919225C43.2306 0.948232 43.3237 0.985706 43.4132 1.02176C43.477 1.04747 43.5391 1.07245 43.6011 1.09313C43.7502 1.14282 43.8992 1.19251 44.0483 1.26704C44.0856 1.27946 44.1166 1.29188 44.1477 1.30431C44.1787 1.31673 44.2098 1.32915 44.2471 1.34157C44.3092 1.36642 44.3713 1.39747 44.4334 1.42853C44.4955 1.45958 44.5576 1.49064 44.6197 1.51548C44.7323 1.59051 44.859 1.65137 44.9784 1.70877C45.0172 1.7274 45.0552 1.74566 45.0917 1.76392C45.2657 1.83845 45.4396 1.93783 45.6135 2.0372L45.9861 2.2608C46.0607 2.28564 46.1352 2.33533 46.2097 2.38502C46.3091 2.43471 46.3864 2.4844 46.4637 2.53408C46.5023 2.55893 46.541 2.58377 46.5824 2.60861ZM29.6374 27.7508C29.5815 27.7073 29.5256 27.6638 29.4635 27.6266C31.1529 25.7136 32.4448 23.4776 33.215 21.0678C33.2522 21.105 33.2957 21.1361 33.3392 21.1672C33.3826 21.1982 33.4261 21.2293 33.4634 21.2665C33.5007 21.2914 33.5317 21.3162 33.5628 21.3411C33.5938 21.3659 33.6249 21.3907 33.6621 21.4156C33.687 21.428 33.7118 21.4466 33.7367 21.4653C33.7615 21.4839 33.7864 21.5025 33.8112 21.515C33.858 21.5306 33.895 21.5559 33.9283 21.5788C33.9481 21.5924 33.9666 21.6051 33.9851 21.6143C34.0596 21.6392 34.1342 21.6889 34.2087 21.7386C34.4075 21.8628 34.6311 21.9622 34.8546 22.0615C34.9292 22.1112 35.0037 22.1361 35.0782 22.1609C35.277 22.2603 35.4757 22.3348 35.6745 22.3845C35.7118 22.3969 35.7428 22.4031 35.7739 22.4093C35.8049 22.4156 35.836 22.4218 35.8733 22.4342C35.9229 22.4466 35.9664 22.459 36.0099 22.4715C36.0534 22.4839 36.0968 22.4963 36.1465 22.5087C36.1714 22.5087 36.1962 22.5149 36.2211 22.5211C36.2459 22.5274 36.2708 22.5336 36.2956 22.5336L36.3701 22.5584C36.3925 22.5584 36.4148 22.5634 36.4394 22.569C36.4695 22.5757 36.503 22.5833 36.544 22.5833C36.5689 22.5833 36.5875 22.5895 36.6061 22.5957C36.6248 22.6019 36.6434 22.6081 36.6683 22.6081C36.7093 22.6081 36.7428 22.6156 36.7729 22.6224C36.7975 22.6279 36.8198 22.6329 36.8422 22.6329C36.8794 22.6329 36.9229 22.6392 36.9664 22.6454C37.0099 22.6516 37.0533 22.6578 37.0906 22.6578C37.1809 22.6578 37.2645 22.6645 37.3449 22.6709C37.4193 22.6769 37.491 22.6826 37.5626 22.6826H37.9353H38.308H38.308C38.4819 22.6826 38.6309 22.6826 38.78 22.6578C38.8173 22.6578 38.8607 22.6516 38.9042 22.6454C38.9477 22.6392 38.9912 22.6329 39.0284 22.6329C39.0657 22.6205 39.1092 22.6143 39.1527 22.6081C39.1961 22.6019 39.2396 22.5957 39.2769 22.5833H39.3514L39.4259 22.5584L39.5005 22.5336L39.5998 22.5087L39.898 22.4342C39.9973 22.4093 40.0719 22.3845 40.1464 22.3597L40.2209 22.3348C40.2458 22.3224 40.2706 22.3162 40.2955 22.31C40.3203 22.3038 40.3452 22.2975 40.37 22.2851C40.4073 22.2727 40.4383 22.2603 40.4694 22.2479C40.5004 22.2354 40.5315 22.223 40.5688 22.2106C40.606 22.1982 40.6495 22.1795 40.693 22.1609C40.7365 22.1423 40.7799 22.1236 40.8172 22.1112C40.8917 22.0864 40.9663 22.0615 41.0408 22.0118C41.3141 21.8876 41.6122 21.7386 41.8606 21.5895C41.8979 21.5647 41.9414 21.5398 41.9849 21.515C42.0283 21.4901 42.0718 21.4653 42.1091 21.4404C42.2333 21.3659 42.3575 21.2914 42.4569 21.2168C42.4942 21.1796 42.5376 21.1485 42.5811 21.1175C42.6246 21.0864 42.6681 21.0554 42.7053 21.0181C43.5004 23.4776 44.8171 25.7384 46.5065 27.6266C46.3823 27.7259 46.258 27.8005 46.1338 27.875L46.1338 27.875C46.0593 27.8999 45.9847 27.9495 45.9102 27.9992L45.5376 28.2228C45.4506 28.2725 45.3636 28.316 45.2767 28.3595C45.1897 28.403 45.1028 28.4464 45.0158 28.4961C44.9033 28.5711 44.7766 28.632 44.6571 28.6894C44.6183 28.708 44.5803 28.7263 44.5438 28.7446C44.4817 28.7694 44.4196 28.8005 44.3575 28.8315C44.2954 28.8626 44.2332 28.8936 44.1711 28.9185C44.0966 28.9681 44.0469 28.993 43.9724 29.0178C43.9351 29.0303 43.8979 29.0489 43.8606 29.0675C43.8233 29.0862 43.7861 29.1048 43.7488 29.1172C43.6743 29.1669 43.5997 29.1917 43.5252 29.2166C43.5004 29.2414 43.4507 29.2663 43.4258 29.2663C43.4119 29.2802 43.3901 29.2863 43.3649 29.2934C43.3452 29.299 43.3234 29.3051 43.3016 29.316L43.2271 29.3408L43.1525 29.3657L43.078 29.3905C43.0532 29.4029 43.0283 29.4091 43.0035 29.4153C42.9786 29.4216 42.9538 29.4278 42.9289 29.4402C42.8668 29.465 42.8047 29.4837 42.7426 29.5023C42.6805 29.5209 42.6184 29.5396 42.5563 29.5644C42.4073 29.6141 42.2334 29.6637 42.0596 29.7134L42.0594 29.7135C42.0097 29.7259 41.9662 29.7383 41.9227 29.7507C41.8793 29.7632 41.8358 29.7756 41.7861 29.788L41.7861 29.788C41.5128 29.8625 41.2395 29.9371 40.9414 29.9868C40.9042 29.9992 40.8669 30.0054 40.8296 30.0116C40.7924 30.0178 40.7551 30.024 40.7178 30.0364L40.2706 30.111L40.27 30.1111C40.0963 30.1359 39.9226 30.1607 39.7241 30.1855C39.575 30.2104 39.4011 30.2352 39.2272 30.2352C39.1402 30.2352 39.0533 30.2414 38.9663 30.2476C38.8794 30.2538 38.7924 30.26 38.7055 30.26H38.4819H37.9601H37.4384H37.2397C37.0658 30.26 36.9167 30.26 36.7428 30.2352C36.5689 30.2352 36.395 30.2104 36.2211 30.1855C36.0223 30.1607 35.8236 30.1358 35.6497 30.111L35.2025 30.0364C35.1652 30.024 35.1279 30.0178 35.0907 30.0116C35.0534 30.0054 35.0161 29.9992 34.9789 29.9868C34.9043 29.9743 34.8298 29.9557 34.7553 29.9371C34.6807 29.9184 34.6062 29.8998 34.5317 29.8874C34.3826 29.8625 34.2336 29.8377 34.1093 29.788C34.01 29.7632 33.9106 29.7383 33.8361 29.7135C33.7491 29.6886 33.6684 29.6638 33.5876 29.6389C33.5069 29.6141 33.4261 29.5893 33.3392 29.5644C33.2771 29.5396 33.215 29.5209 33.1528 29.5023C33.0907 29.4837 33.0286 29.465 32.9665 29.4402C32.9417 29.4278 32.9168 29.4216 32.892 29.4153C32.8671 29.4091 32.8423 29.4029 32.8174 29.3905L32.7429 29.3657L32.6684 29.3408L32.5939 29.316C32.5799 29.302 32.5581 29.2959 32.5329 29.2888C32.5132 29.2833 32.4914 29.2772 32.4696 29.2663C32.4572 29.2539 32.4386 29.2476 32.4199 29.2414C32.4013 29.2352 32.3827 29.229 32.3703 29.2166C32.3513 29.2071 32.3359 29.2012 32.3228 29.1962C32.3016 29.1881 32.2862 29.1823 32.2709 29.1669C32.246 29.1545 32.2274 29.1483 32.2088 29.1421C32.1901 29.1358 32.1715 29.1296 32.1467 29.1172C32.1094 29.1048 32.0721 29.0862 32.0349 29.0675C31.9976 29.0489 31.9603 29.0303 31.9231 29.0178C31.8485 28.9681 31.7988 28.9433 31.7243 28.9185C31.6622 28.8936 31.6001 28.8626 31.538 28.8315C31.4759 28.8005 31.4138 28.7694 31.3517 28.7446C31.2391 28.6695 31.1124 28.6087 30.9929 28.5513C30.9541 28.5326 30.9161 28.5144 30.8796 28.4961C30.8051 28.4713 30.7057 28.4216 30.6312 28.3719C30.5939 28.3471 30.5504 28.3222 30.507 28.2974C30.4635 28.2725 30.42 28.2477 30.3827 28.2228C30.3082 28.1856 30.2399 28.1421 30.1716 28.0986C30.1032 28.0551 30.0349 28.0117 29.9604 27.9744C29.9355 27.962 29.9107 27.9433 29.8859 27.9247C29.861 27.9061 29.8362 27.8874 29.8113 27.875C29.7492 27.8377 29.6933 27.7943 29.6374 27.7508Z" fill="#52A7FF"/>
</svg>
