<svg width="149" height="21" viewBox="0 0 149 21" fill="none" xmlns="http://www.w3.org/2000/svg">
<path d="M7.9643 20.7441C6.10111 20.7441 4.53351 20.3321 3.26152 19.508C1.98953 18.666 1.09376 17.5283 0.574219 16.0951L3.74524 14.2409C4.47977 16.1578 5.92195 17.1163 8.0718 17.1163C9.11089 17.1163 9.87229 16.9282 10.356 16.552C10.8397 16.1757 11.0816 15.701 11.0816 15.1277C11.0816 14.4648 10.786 13.9542 10.1948 13.5959C9.60356 13.2197 8.54655 12.8166 7.02375 12.3866C6.18173 12.1358 5.46511 11.885 4.87391 11.6342C4.30061 11.3834 3.71836 11.0519 3.12716 10.6399C2.55387 10.2099 2.11494 9.67246 1.81038 9.02751C1.50582 8.38255 1.35354 7.63011 1.35354 6.77017C1.35354 5.06821 1.9537 3.7156 3.15403 2.71234C4.37227 1.69117 5.83238 1.18058 7.53434 1.18058C9.05714 1.18058 10.3918 1.5568 11.5384 2.30925C12.7029 3.04378 13.6076 4.07391 14.2526 5.39965L11.1353 7.20014C10.3829 5.58776 9.18255 4.78157 7.53434 4.78157C6.76398 4.78157 6.15485 4.96072 5.70697 5.31903C5.277 5.65942 5.06202 6.1073 5.06202 6.66268C5.06202 7.25388 5.30387 7.7376 5.78759 8.11382C6.28922 8.47213 7.23873 8.86627 8.63613 9.29624C9.20942 9.47539 9.63939 9.61871 9.92603 9.7262C10.2306 9.81578 10.6337 9.96806 11.1353 10.183C11.6549 10.3801 12.049 10.5682 12.3177 10.7474C12.6044 10.9265 12.9269 11.1684 13.2852 11.473C13.6435 11.7775 13.9122 12.091 14.0914 12.4135C14.2884 12.736 14.4497 13.1301 14.5751 13.5959C14.7184 14.0438 14.7901 14.5365 14.7901 15.0739C14.7901 16.8117 14.1541 18.1912 12.8821 19.2124C11.628 20.2336 9.98874 20.7441 7.9643 20.7441Z" fill="#333333"/>
<path d="M28.8629 18.7018C27.4834 20.0634 25.7994 20.7441 23.8108 20.7441C21.8222 20.7441 20.1381 20.0634 18.7587 18.7018C17.3971 17.3223 16.7163 15.6383 16.7163 13.6497C16.7163 11.6611 17.3971 9.98598 18.7587 8.62441C20.1381 7.24493 21.8222 6.55519 23.8108 6.55519C25.7994 6.55519 27.4834 7.24493 28.8629 8.62441C30.2424 9.98598 30.9321 11.6611 30.9321 13.6497C30.9321 15.6383 30.2424 17.3223 28.8629 18.7018ZM21.2041 16.3101C21.9028 17.0088 22.7717 17.3581 23.8108 17.3581C24.8499 17.3581 25.7188 17.0088 26.4175 16.3101C27.1162 15.6114 27.4655 14.7246 27.4655 13.6497C27.4655 12.5747 27.1162 11.6879 26.4175 10.9892C25.7188 10.2905 24.8499 9.94119 23.8108 9.94119C22.7717 9.94119 21.9028 10.2905 21.2041 10.9892C20.5233 11.6879 20.1829 12.5747 20.1829 13.6497C20.1829 14.7246 20.5233 15.6114 21.2041 16.3101Z" fill="#333333"/>
<path d="M33.3709 20.3679V0.75061H36.8375V20.3679H33.3709Z" fill="#333333"/>
<path d="M41.7303 5.31903C41.157 5.31903 40.6554 5.113 40.2254 4.70095C39.8133 4.27098 39.6073 3.76935 39.6073 3.19606C39.6073 2.62276 39.8133 2.12114 40.2254 1.69117C40.6554 1.2612 41.157 1.04621 41.7303 1.04621C42.3215 1.04621 42.8231 1.2612 43.2352 1.69117C43.6651 2.12114 43.8801 2.62276 43.8801 3.19606C43.8801 3.76935 43.6651 4.27098 43.2352 4.70095C42.8231 5.113 42.3215 5.31903 41.7303 5.31903ZM40.0104 20.3679V6.93141H43.477V20.3679H40.0104Z" fill="#333333"/>
<path d="M54.3356 10.2637H51.299V15.8533C51.299 16.3191 51.4154 16.6594 51.6483 16.8744C51.8812 17.0894 52.2216 17.2148 52.6695 17.2507C53.1174 17.2686 53.6728 17.2596 54.3356 17.2238V20.3679C51.9529 20.6367 50.2688 20.4127 49.2835 19.6961C48.3161 18.9795 47.8323 17.6985 47.8323 15.8533V10.2637H45.4944V6.93141H47.8323V4.21723L51.299 3.16918V6.93141H54.3356V10.2637Z" fill="#333333"/>
<path d="M72.7911 20.7441C69.9605 20.7441 67.6225 19.8036 65.7772 17.9225C63.9319 16.0414 63.0093 13.7213 63.0093 10.9624C63.0093 8.18548 63.9319 5.86545 65.7772 4.00225C67.6225 2.12113 69.9605 1.18058 72.7911 1.18058C74.4931 1.18058 76.0606 1.58367 77.4939 2.38987C78.945 3.17814 80.0737 4.25306 80.8799 5.61463L77.682 7.46887C77.2162 6.62685 76.5533 5.97294 75.6934 5.50714C74.8334 5.02342 73.866 4.78157 72.7911 4.78157C70.9637 4.78157 69.4857 5.35486 68.357 6.50144C67.2463 7.64802 66.6909 9.135 66.6909 10.9624C66.6909 12.7718 67.2463 14.2498 68.357 15.3964C69.4857 16.543 70.9637 17.1163 72.7911 17.1163C73.866 17.1163 74.8334 16.8834 75.6934 16.4176C76.5712 15.9339 77.2341 15.28 77.682 14.4559L80.8799 16.3101C80.0737 17.6717 78.954 18.7555 77.5208 19.5617C76.0875 20.35 74.511 20.7441 72.7911 20.7441Z" fill="#333333"/>
<path d="M83.2067 20.3679V0.75061H86.6733V20.3679H83.2067Z" fill="#333333"/>
<path d="M101.294 18.7018C99.9147 20.0634 98.2306 20.7441 96.242 20.7441C94.2534 20.7441 92.5694 20.0634 91.1899 18.7018C89.8283 17.3223 89.1475 15.6383 89.1475 13.6497C89.1475 11.6611 89.8283 9.98598 91.1899 8.62441C92.5694 7.24493 94.2534 6.55519 96.242 6.55519C98.2306 6.55519 99.9147 7.24493 101.294 8.62441C102.674 9.98598 103.363 11.6611 103.363 13.6497C103.363 15.6383 102.674 17.3223 101.294 18.7018ZM93.6353 16.3101C94.334 17.0088 95.2029 17.3581 96.242 17.3581C97.2811 17.3581 98.15 17.0088 98.8487 16.3101C99.5474 15.6114 99.8968 14.7246 99.8968 13.6497C99.8968 12.5747 99.5474 11.6879 98.8487 10.9892C98.15 10.2905 97.2811 9.94119 96.242 9.94119C95.2029 9.94119 94.334 10.2905 93.6353 10.9892C92.9545 11.6879 92.6142 12.5747 92.6142 13.6497C92.6142 14.7246 92.9545 15.6114 93.6353 16.3101Z" fill="#333333"/>
<path d="M114.67 6.93141H118.137V20.3679H114.67V18.863C113.828 20.1171 112.493 20.7441 110.666 20.7441C109.197 20.7441 107.979 20.2515 107.011 19.2661C106.062 18.2808 105.587 16.9192 105.587 15.1814V6.93141H109.054V14.7515C109.054 15.6472 109.296 16.337 109.779 16.8207C110.263 17.2865 110.908 17.5194 111.714 17.5194C112.61 17.5194 113.327 17.2417 113.864 16.6863C114.401 16.1309 114.67 15.2979 114.67 14.1871V6.93141Z" fill="#333333"/>
<path d="M131.497 1.5568H134.963V20.3679H131.497V18.7824C130.476 20.0902 129.024 20.7441 127.143 20.7441C125.334 20.7441 123.784 20.0634 122.494 18.7018C121.222 17.3223 120.586 15.6383 120.586 13.6497C120.586 11.6611 121.222 9.98598 122.494 8.62441C123.784 7.24493 125.334 6.55519 127.143 6.55519C129.024 6.55519 130.476 7.2091 131.497 8.51692V1.5568ZM125.101 16.3907C125.818 17.0894 126.713 17.4388 127.788 17.4388C128.863 17.4388 129.75 17.0894 130.449 16.3907C131.147 15.6741 131.497 14.7604 131.497 13.6497C131.497 12.5389 131.147 11.6342 130.449 10.9355C129.75 10.2189 128.863 9.86057 127.788 9.86057C126.713 9.86057 125.818 10.2189 125.101 10.9355C124.402 11.6342 124.053 12.5389 124.053 13.6497C124.053 14.7604 124.402 15.6741 125.101 16.3907Z" fill="#333333"/>
<path d="M141.227 10.7474C141.227 11.1057 141.46 11.4013 141.925 11.6342C142.409 11.8492 142.991 12.0462 143.672 12.2254C144.353 12.3866 145.034 12.6016 145.714 12.8703C146.395 13.1212 146.969 13.5511 147.434 14.1603C147.918 14.7694 148.16 15.5308 148.16 16.4445C148.16 17.8239 147.64 18.8899 146.601 19.6424C145.58 20.3769 144.299 20.7441 142.758 20.7441C139.999 20.7441 138.118 19.6782 137.115 17.5463L140.125 15.8533C140.519 17.0178 141.397 17.6 142.758 17.6C143.995 17.6 144.613 17.2148 144.613 16.4445C144.613 16.0862 144.371 15.7995 143.887 15.5845C143.421 15.3516 142.848 15.1456 142.167 14.9664C141.486 14.7873 140.806 14.5634 140.125 14.2946C139.444 14.0259 138.862 13.6049 138.378 13.0316C137.912 12.4404 137.679 11.7059 137.679 10.828C137.679 9.50226 138.163 8.46317 139.131 7.71073C140.116 6.94037 141.334 6.55519 142.785 6.55519C143.878 6.55519 144.872 6.806 145.768 7.30763C146.664 7.79135 147.372 8.49005 147.891 9.40373L144.935 11.0161C144.505 10.1024 143.789 9.64559 142.785 9.64559C142.337 9.64559 141.961 9.74412 141.657 9.94119C141.37 10.1383 141.227 10.407 141.227 10.7474Z" fill="#333333"/>
</svg>
